<svg xmlns="http://www.w3.org/2000/svg" width="2550" height="768" fill-rule="evenodd" clip-rule="evenodd" image-rendering="optimizeQuality" shape-rendering="geometricPrecision" text-rendering="geometricPrecision" viewBox="0 0 2550 768"><g fill="currentColor"><path d="M466.5 168.5c23.8-1.9 46.6 5.4 66.8 18C421 213.5 431.3 330 312.5 410c68 29.2 81 89.4 144 156 16.7 15.4 37.9 27 60.5 30.7-17.7 21.4-102.6 47.2-162-42.2-38.7-63.2-64.2-91.8-96.3-96-19.3 15.8-19.3 75-22.2 101.5-6 37.2-28 58.5-66 59-4.4-117.3-.3-170.8 56-227 40.1-33.4 78-58.3 107.5-102.5 51-89.3 81-113.8 132.5-121m-297 0c39.5 2 68.3 32.6 70.5 61l1 101a54 54 0 0 1-14 33 227 227 0 0 0-56 68z"/><path d="m601.5 179.5.5 256c-6.5 6.5-83.2 22.1-130 113a37 37 0 0 1-17.5-18.7c25.6-57 67-85.5 118.5-114.3v-191c-93.4 52.4-117.4 125.7-178 182.4-.3 1.8 36 33.5 53 65.6a48 48 0 0 1-4 41.9c-17.5-25.6-28.5-42.4-92.5-106.9 42.8-36.2 74-81.7 108.5-126 38-45.9 86.5-79.9 141.5-102"/><path d="M705.6 222.3c.7 93.7 1 276.8.4 307.8A341 341 0 0 0 546.5 567c-34.7 13.1-59.6-7-60.1-8.7 36.9-72.3 98.4-91.9 137.1-103.8l1.5-168 28-9-.6 202.4c-2.1 1.6-60.8-.5-115.9 57.1 5.8 2.9 51.9-28.8 140.5-35.5.5-83.3 1-168 .8-251.3a174 174 0 0 0-53.7 9c-2.7-8.7-4-20.4-.7-29.1 6.5-3.7 65.7-13.2 82.2-7.8"/><text x="775" y="395" dominant-baseline="central" font-family="'Helvetica Neue', Helvetica, Arial, sans-serif" font-size="400" transform="translate(60)"><tspan font-weight="bold">kaz</tspan><tspan>-blog</tspan></text></g></svg>